<svg xmlns="http://www.w3.org/2000/svg" width="920" height="920" viewBox="0 0 920 920" role="img" aria-labelledby="title desc">
  <title id="title">What can be verified? RLVR domain map</title>
  <desc id="desc">A two-axis map placing proof, code, math, long-context question answering, multimodal tasks, agentic settings, and LLM-as-judge by verification strength and verification granularity.</desc>

  <defs>
    <style>
      .bg { fill: #f7f8fb; }
      .panel { fill: #ffffff; stroke: #d7dde8; stroke-width: 2; }
      .quad-a { fill: #f7f9fc; }
      .quad-b { fill: #edf5ff; }
      .quad-c { fill: #fff6ea; }
      .quad-d { fill: #ebf8f3; }
      .grid { stroke: #d6dde9; stroke-width: 2; }
      .axis { stroke: #1f2328; stroke-width: 4; fill: #1f2328; }
      .text { fill: #1f2328; font-family: Avenir Next, Inter, Segoe UI, sans-serif; }
      .muted { fill: #5a6472; }
      .title { font-size: 30px; font-weight: 800; }
      .subtitle { font-size: 18px; }
      .axis-label { font-size: 24px; font-weight: 700; }
      .tick { font-size: 18px; font-weight: 600; }
      .quadrant { font-size: 15px; font-weight: 700; }
      .label { font-size: 18px; font-weight: 800; dominant-baseline: middle; }
      .num { fill: #ffffff; font-size: 20px; font-weight: 800; text-anchor: middle; dominant-baseline: middle; }
    </style>
  </defs>

  <rect class="bg" x="0" y="0" width="920" height="920" rx="32" />
  <rect class="panel" x="24" y="24" width="872" height="872" rx="28" />

  <text class="text title" x="72" y="86">What can be verified?</text>
  <text class="text subtitle muted" x="72" y="120">RLVR domain map by verification strength and verification granularity</text>

  <rect class="quad-a" x="228" y="176" width="246" height="184" rx="20" />
  <rect class="quad-b" x="488" y="176" width="286" height="184" rx="20" />
  <rect class="quad-c" x="168" y="374" width="306" height="194" rx="20" />
  <rect class="quad-d" x="488" y="374" width="286" height="194" rx="20" />

  <g class="grid">
    <line x1="200" y1="620" x2="768" y2="620" />
    <line x1="200" y1="508" x2="768" y2="508" />
    <line x1="200" y1="396" x2="768" y2="396" />
    <line x1="200" y1="284" x2="768" y2="284" />

    <line x1="200" y1="172" x2="200" y2="620" />
    <line x1="342" y1="172" x2="342" y2="620" />
    <line x1="484" y1="172" x2="484" y2="620" />
    <line x1="626" y1="172" x2="626" y2="620" />
    <line x1="768" y1="172" x2="768" y2="620" />
  </g>

  <g class="axis">
    <line x1="200" y1="620" x2="790" y2="620" />
    <polygon points="790,620 768,608 768,632" />
    <line x1="200" y1="620" x2="200" y2="146" />
    <polygon points="200,146 188,168 212,168" />
  </g>

  <text class="text axis-label" x="494" y="736" text-anchor="middle">Verification strength</text>
  <text class="text tick" x="200" y="776">Weak</text>
  <text class="text tick" x="770" y="776" text-anchor="end">Strong</text>

  <text class="text axis-label" x="66" y="398" transform="rotate(-90 66 398)">Verification granularity</text>
  <text class="text tick" x="182" y="626" text-anchor="end">Coarse</text>
  <text class="text tick" x="182" y="178" text-anchor="end">Fine</text>

  <text class="text quadrant muted" x="246" y="202">Granular but fragile</text>
  <text class="text quadrant muted" x="508" y="202">Strong and granular</text>
  <text class="text quadrant muted" x="188" y="548">Weak and coarse</text>
  <text class="text quadrant muted" x="508" y="548">Strong but endpoint-heavy</text>

  <g transform="translate(676 238)">
    <circle cx="0" cy="0" r="22" fill="#0f4c81" />
    <text class="num" x="0" y="1">1</text>
    <text class="text label" x="34" y="1">Proof</text>
  </g>

  <g transform="translate(604 350)">
    <circle cx="0" cy="0" r="22" fill="#d97706" />
    <text class="num" x="0" y="1">2</text>
    <text class="text label" x="34" y="1">Code</text>
  </g>

  <g transform="translate(632 504)">
    <circle cx="0" cy="0" r="22" fill="#117864" />
    <text class="num" x="0" y="1">3</text>
    <text class="text label" x="34" y="1">Math</text>
  </g>

  <g transform="translate(486 400)">
    <circle cx="0" cy="0" r="22" fill="#8a5a00" />
    <text class="num" x="0" y="1">4</text>
    <text class="text label" x="32" y="1">Long-context QA</text>
  </g>

  <g transform="translate(372 490)">
    <circle cx="0" cy="0" r="22" fill="#c2410c" />
    <text class="num" x="0" y="1">5</text>
    <text class="text label" x="32" y="1">Multimodal</text>
  </g>

  <g transform="translate(326 292)">
    <circle cx="0" cy="0" r="22" fill="#b42318" />
    <text class="num" x="0" y="1">6</text>
    <text class="text label" x="34" y="1">Agentic</text>
  </g>

  <g transform="translate(348 590)">
    <circle cx="0" cy="0" r="22" fill="#0891b2" />
    <text class="num" x="0" y="1">7</text>
    <text class="text label" x="34" y="1">LLM-as-judge</text>
  </g>
</svg>
